<mxfile host="app.diagrams.net" modified="2024-04-26T20:25:04.626Z" agent="Mozilla/5.0 (Macintosh; Intel Mac OS X 10_15_7) AppleWebKit/537.36 (KHTML, like Gecko) Chrome/120.0.0.0 Safari/537.36" etag="rcHDI6KJIZECrCGGqLE7" version="24.3.1" type="github">
  <diagram id="prtHgNgQTEPvFCAcTncT" name="Page-1">
    <mxGraphModel dx="954" dy="606" grid="1" gridSize="10" guides="1" tooltips="1" connect="1" arrows="1" fold="1" page="1" pageScale="1" pageWidth="827" pageHeight="1169" math="0" shadow="0">
      <root>
        <mxCell id="0" />
        <mxCell id="1" parent="0" />
        <mxCell id="AHmtGaWHgnerntC5Vlxw-6" style="edgeStyle=orthogonalEdgeStyle;rounded=0;orthogonalLoop=1;jettySize=auto;html=1;exitX=1;exitY=0.5;exitDx=0;exitDy=0;entryX=0;entryY=0.5;entryDx=0;entryDy=0;" edge="1" parent="1" source="AHmtGaWHgnerntC5Vlxw-2" target="AHmtGaWHgnerntC5Vlxw-3">
          <mxGeometry relative="1" as="geometry" />
        </mxCell>
        <mxCell id="AHmtGaWHgnerntC5Vlxw-2" value="&lt;font style=&quot;font-size: 40px;&quot;&gt;CI&lt;/font&gt;" style="rounded=0;whiteSpace=wrap;html=1;" vertex="1" parent="1">
          <mxGeometry x="120" y="160" width="120" height="60" as="geometry" />
        </mxCell>
        <mxCell id="AHmtGaWHgnerntC5Vlxw-7" style="edgeStyle=orthogonalEdgeStyle;rounded=0;orthogonalLoop=1;jettySize=auto;html=1;exitX=1;exitY=0.5;exitDx=0;exitDy=0;" edge="1" parent="1" source="AHmtGaWHgnerntC5Vlxw-3" target="AHmtGaWHgnerntC5Vlxw-5">
          <mxGeometry relative="1" as="geometry" />
        </mxCell>
        <mxCell id="AHmtGaWHgnerntC5Vlxw-3" value="&lt;font style=&quot;font-size: 20px;&quot;&gt;Continuous&lt;/font&gt;&lt;div&gt;&lt;font style=&quot;font-size: 20px;&quot;&gt;Delivery&lt;/font&gt;&lt;/div&gt;" style="rounded=0;whiteSpace=wrap;html=1;" vertex="1" parent="1">
          <mxGeometry x="360" y="160" width="120" height="60" as="geometry" />
        </mxCell>
        <mxCell id="AHmtGaWHgnerntC5Vlxw-5" value="&lt;font style=&quot;font-size: 20px;&quot;&gt;Continuous&lt;/font&gt;&lt;div style=&quot;font-size: 20px;&quot;&gt;&lt;font style=&quot;font-size: 20px;&quot;&gt;Deployment&lt;/font&gt;&lt;/div&gt;" style="rounded=0;whiteSpace=wrap;html=1;" vertex="1" parent="1">
          <mxGeometry x="630" y="160" width="120" height="60" as="geometry" />
        </mxCell>
      </root>
    </mxGraphModel>
  </diagram>
</mxfile>
